<?xml version="1.0" standalone="no"?>
<!DOCTYPE svg PUBLIC "-//W3C//DTD SVG 20010904//EN"
 "http://www.w3.org/TR/2001/REC-SVG-20010904/DTD/svg10.dtd">
<svg version="1.0" xmlns="http://www.w3.org/2000/svg"
 width="926.000000pt" height="926.000000pt" viewBox="0 0 926.000000 926.000000"
 preserveAspectRatio="xMidYMid meet">
<metadata>
Created by potrace 1.11, written by Peter Selinger 2001-2013
</metadata>
<g transform="translate(0.000000,926.000000) scale(0.100000,-0.100000)"
fill="#000000" stroke="none">
<path d="M1970 7160 l0 -390 470 0 470 0 0 -435 0 -435 190 0 190 0 0 425 0
424 208 3 c115 2 216 2 225 0 15 -3 17 -29 17 -253 l0 -249 415 0 415 0 -2
267 -3 266 -417 0 -418 0 -2 156 -3 156 -435 2 c-239 1 -454 2 -477 2 l-43 1
0 225 0 225 -400 0 -400 0 0 -390z"/>
<path d="M4637 6072 c0 -103 2 -195 2 -204 1 -17 18 -18 206 -18 l205 0 0 205
0 205 -207 0 -208 0 2 -188z"/>
<path d="M3318 5872 l-28 -3 0 -225 0 -224 225 0 225 0 -2 226 -3 226 -195 2
c-107 0 -207 0 -222 -2z"/>
<path d="M5065 5851 c-3 -2 -5 -95 -5 -206 l0 -203 -31 -12 c-17 -8 -36 -13
-43 -12 -6 1 -80 2 -165 3 -121 1 -155 -2 -160 -12 -3 -8 -4 -106 -1 -219 l5
-205 193 -3 192 -2 0 -193 0 -193 203 1 c114 0 214 -4 230 -9 l27 -10 0 -678
0 -678 53 0 c59 -1 1008 -1 1132 0 l80 0 1 253 0 252 237 3 237 2 0 821 c0
452 3 826 7 832 4 6 1 7 -7 2 -10 -6 -12 -4 -7 8 6 15 -16 17 -245 19 l-251 3
-1 210 0 210 -635 6 c-350 4 -727 8 -839 11 -112 2 -205 2 -207 -1z"/>
<path d="M3789 5390 c-1 -3 -3 -95 -4 -205 -2 -110 -4 -203 -4 -207 -1 -5
-198 -8 -440 -8 l-439 0 -3 -27 c-2 -16 -2 -86 1 -158 3 -71 4 -142 2 -158
l-3 -27 -215 0 c-118 1 -218 -2 -224 -5 -7 -4 -10 -317 -10 -906 0 -794 2
-900 15 -905 8 -4 113 -7 233 -8 l217 -1 1 -225 0 -225 355 -2 c195 -2 564 -4
822 -5 l467 -3 1 80 c0 44 0 140 -1 214 0 74 2 143 6 153 5 17 20 18 225 18
120 -1 224 2 229 5 7 4 10 301 10 855 l0 850 -222 2 -223 3 -3 238 -2 237
-200 0 -200 0 0 210 c0 116 -3 210 -7 210 -58 4 -383 4 -384 0z"/>
</g>
</svg>
